ffmpeg started on 2026-01-13 at 12:41:15
Report written to "D:\Convert\FFMetrics\reports\psnr_report-6.txt"
Log level: 32
Command line:
ffmpeg -hide_banner -nostdin -r 24000/1001 -i "F:\\Convert\\files\\[DC] Make Heroine ga Oosugiru - 07_Telegram_HEVC(99).mkv" -r 24000/1001 -i "F:\\Convert\\files\\[DC] Make Heroine ga Oosugiru - 07_Telegram.mp4" -lavfi "[0:v]settb=AVTB,setpts=PTS-STARTPTS,format=pix_fmts=yuv420p10le,fps=24000/1001,scale=1920:1080:flags=lanczos:param0=3:out_range=limited:out_color_matrix=bt709:out_chroma_loc=left,setsar=1/1,setdar=(1920/1080)*(1/1),colorspace=format=yuv420p10:range=tv:primaries=bt709:trc=bt709:space=bt709:fast=0[main];[1:v]settb=AVTB,setpts=PTS-STARTPTS,format=pix_fmts=yuv420p,fps=24000/1001,scale=1920:1080:flags=lanczos:param0=3:out_range=limited:out_color_matrix=bt709:out_chroma_loc=left,setsar=1.000,setdar=1.778,colorspace=format=yuv420p:range=tv:primaries=bt709:trc=bt709:space=bt709:fast=0[ref];[main][ref]psnr=eof_action=endall:stats_file='D\\:/Convert/FFMetrics/logs/psnr_logfile-6.txt'" -f null -
Input #0, matroska,webm, from 'F:\Convert\files\[DC] Make Heroine ga Oosugiru - 07_Telegram_HEVC(99).mkv':
  Metadata:
    COMPATIBLE_BRANDS: isomiso2avc1mp41
    MAJOR_BRAND     : isom
    MINOR_VERSION   : 512
    ENCODER         : Lavf61.7.100
  Duration: 00:24:06.79, start: -0.021000, bitrate: 966 kb/s
  Stream #0:0: Video: hevc (Main 10), yuv420p10le(tv, bt709, progressive), 1920x1080 [SAR 1:1 DAR 16:9], 23.98 fps, 23.98 tbr, 1k tbn (default)
      Metadata:
        HANDLER_NAME    : VideoHandler
        VENDOR_ID       : [0][0][0][0]
        ENCODER         : Lavc61.19.100 libx265
        BPS             : 769372
        DURATION        : 00:24:06.569708333
        NUMBER_OF_FRAMES: 34683
        NUMBER_OF_BYTES : 139118862
        _STATISTICS_WRITING_APP: mkvpropedit v94.0 ('Initiate') 64-bit
        _STATISTICS_WRITING_DATE_UTC: 2026-01-12 10:58:48
        _STATISTICS_TAGS: BPS DURATION NUMBER_OF_FRAMES NUMBER_OF_BYTES
  Stream #0:1: Audio: aac (LC), 48000 Hz, stereo, fltp (default)
      Metadata:
        HANDLER_NAME    : SoundHandler
        VENDOR_ID       : [0][0][0][0]
        ENCODER         : Lavc61.19.100 aac
        BPS             : 193194
        DURATION        : 00:24:06.784000000
        NUMBER_OF_FRAMES: 67819
        NUMBER_OF_BYTES : 34938755
        _STATISTICS_WRITING_APP: mkvpropedit v94.0 ('Initiate') 64-bit
        _STATISTICS_WRITING_DATE_UTC: 2026-01-12 10:58:48
        _STATISTICS_TAGS: BPS DURATION NUMBER_OF_FRAMES NUMBER_OF_BYTES
Input #1, mov,mp4,m4a,3gp,3g2,mj2, from 'F:\Convert\files\[DC] Make Heroine ga Oosugiru - 07_Telegram.mp4':
  Metadata:
    major_brand     : isom
    minor_version   : 512
    compatible_brands: isomiso2avc1mp41
    encoder         : Lavf60.16.100
  Duration: 00:24:06.74, start: 0.000000, bitrate: 3764 kb/s
  Stream #1:0[0x1](und): Video: h264 (High) (avc1 / 0x31637661), yuv420p(tv, bt709, progressive), 1920x1080 [SAR 1:1 DAR 16:9], 3616 kb/s, 23.98 fps, 23.98 tbr, 24k tbn (default)
      Metadata:
        handler_name    : VideoHandler
        vendor_id       : [0][0][0][0]
        encoder         : Lavc60.31.102 h264_qsv
  Stream #1:1[0x2](und): Audio: aac (HE-AACv2) (mp4a / 0x6134706D), 48000 Hz, stereo, fltp, 144 kb/s (default)
      Metadata:
        handler_name    : SoundHandler
        vendor_id       : [0][0][0][0]
Stream mapping:
  Stream #0:0 (hevc) -> settb:default
  Stream #1:0 (h264) -> settb:default
  psnr:default -> Stream #0:0 (wrapped_avframe)
  Stream #0:1 -> #0:1 (aac (native) -> pcm_s16le (native))
Output #0, null, to 'pipe:':
  Metadata:
    COMPATIBLE_BRANDS: isomiso2avc1mp41
    MAJOR_BRAND     : isom
    MINOR_VERSION   : 512
    encoder         : Lavf61.7.100
  Stream #0:0: Video: wrapped_avframe, yuv420p10le(tv, bt709, progressive), 1920x1080 [SAR 1:1 DAR 16:9], q=2-31, 200 kb/s, 23.98 fps, 23.98 tbn
      Metadata:
        encoder         : Lavc61.19.100 wrapped_avframe
  Stream #0:1: Audio: pcm_s16le, 48000 Hz, stereo, s16, 1536 kb/s (default)
      Metadata:
        HANDLER_NAME    : SoundHandler
        VENDOR_ID       : [0][0][0][0]
        _STATISTICS_TAGS: BPS DURATION NUMBER_OF_FRAMES NUMBER_OF_BYTES
        BPS             : 193194
        DURATION        : 00:24:06.784000000
        NUMBER_OF_FRAMES: 67819
        NUMBER_OF_BYTES : 34938755
        _STATISTICS_WRITING_APP: mkvpropedit v94.0 ('Initiate') 64-bit
        _STATISTICS_WRITING_DATE_UTC: 2026-01-12 10:58:48
        encoder         : Lavc61.19.100 pcm_s16le
frame=  129 fps=0.0 q=-0.0 size=N/A time=00:00:05.38 bitrate=N/A speed=10.5x    frame=  313 fps=305 q=-0.0 size=N/A time=00:00:13.05 bitrate=N/A speed=12.7x    frame=  503 fps=324 q=-0.0 size=N/A time=00:00:20.97 bitrate=N/A speed=13.5x    frame=  693 fps=337 q=-0.0 size=N/A time=00:00:28.90 bitrate=N/A speed=14.1x    frame=  880 fps=342 q=-0.0 size=N/A time=00:00:36.70 bitrate=N/A speed=14.3x    frame= 1006 fps=325 q=-0.0 size=N/A time=00:00:41.95 bitrate=N/A speed=13.5x    frame= 1159 fps=321 q=-0.0 size=N/A time=00:00:48.33 bitrate=N/A speed=13.4x    frame= 1310 fps=318 q=-0.0 size=N/A time=00:00:54.63 bitrate=N/A speed=13.2x    frame= 1462 fps=315 q=-0.0 size=N/A time=00:01:00.97 bitrate=N/A speed=13.2x    frame= 1597 fps=310 q=-0.0 size=N/A time=00:01:06.60 bitrate=N/A speed=12.9x    frame= 1743 fps=308 q=-0.0 size=N/A time=00:01:12.69 bitrate=N/A speed=12.8x    frame= 1902 fps=307 q=-0.0 size=N/A time=00:01:19.32 bitrate=N/A speed=12.8x    frame= 2051 fps=306 q=-0.0 size=N/A time=00:01:25.54 bitrate=N/A speed=12.8x    frame= 2162 fps=299 q=-0.0 size=N/A time=00:01:30.17 bitrate=N/A speed=12.5x    frame= 2308 fps=298 q=-0.0 size=N/A time=00:01:36.26 bitrate=N/A speed=12.4x    frame= 2449 fps=296 q=-0.0 size=N/A time=00:01:42.14 bitrate=N/A speed=12.4x    frame= 2575 fps=293 q=-0.0 size=N/A time=00:01:47.39 bitrate=N/A speed=12.2x    frame= 2744 fps=295 q=-0.0 size=N/A time=00:01:54.44 bitrate=N/A speed=12.3x    frame= 2914 fps=297 q=-0.0 size=N/A time=00:02:01.53 bitrate=N/A speed=12.4x    frame= 3091 fps=299 q=-0.0 size=N/A time=00:02:08.92 bitrate=N/A speed=12.5x    frame= 3287 fps=303 q=-0.0 size=N/A time=00:02:17.09 bitrate=N/A speed=12.6x    frame= 3468 fps=305 q=-0.0 size=N/A time=00:02:24.64 bitrate=N/A speed=12.7x    frame= 3660 fps=308 q=-0.0 size=N/A time=00:02:32.65 bitrate=N/A speed=12.9x    frame= 3853 fps=311 q=-0.0 size=N/A time=00:02:40.70 bitrate=N/A speed=  13x    frame= 4044 fps=313 q=-0.0 size=N/A time=00:02:48.66 bitrate=N/A speed=13.1x    frame= 4233 fps=315 q=-0.0 size=N/A time=00:02:56.55 bitrate=N/A speed=13.1x    frame= 4418 fps=317 q=-0.0 size=N/A time=00:03:04.26 bitrate=N/A speed=13.2x    frame= 4615 fps=319 q=-0.0 size=N/A time=00:03:12.48 bitrate=N/A speed=13.3x    frame= 4801 fps=321 q=-0.0 size=N/A time=00:03:20.24 bitrate=N/A speed=13.4x    frame= 4995 fps=322 q=-0.0 size=N/A time=00:03:28.33 bitrate=N/A speed=13.4x    frame= 5177 fps=324 q=-0.0 size=N/A time=00:03:35.92 bitrate=N/A speed=13.5x    frame= 5365 fps=325 q=-0.0 size=N/A time=00:03:43.76 bitrate=N/A speed=13.6x    frame= 5546 fps=326 q=-0.0 size=N/A time=00:03:51.31 bitrate=N/A speed=13.6x    frame= 5723 fps=326 q=-0.0 size=N/A time=00:03:58.69 bitrate=N/A speed=13.6x    frame= 5894 fps=326 q=-0.0 size=N/A time=00:04:05.82 bitrate=N/A speed=13.6x    frame= 6069 fps=327 q=-0.0 size=N/A time=00:04:13.12 bitrate=N/A speed=13.6x    frame= 6243 fps=327 q=-0.0 size=N/A time=00:04:20.38 bitrate=N/A speed=13.6x    frame= 6424 fps=328 q=-0.0 size=N/A time=00:04:27.93 bitrate=N/A speed=13.7x    frame= 6590 fps=328 q=-0.0 size=N/A time=00:04:34.85 bitrate=N/A speed=13.7x    frame= 6759 fps=327 q=-0.0 size=N/A time=00:04:41.90 bitrate=N/A speed=13.7x    frame= 6942 fps=328 q=-0.0 size=N/A time=00:04:49.53 bitrate=N/A speed=13.7x    frame= 7107 fps=328 q=-0.0 size=N/A time=00:04:56.42 bitrate=N/A speed=13.7x    frame= 7283 fps=328 q=-0.0 size=N/A time=00:05:03.76 bitrate=N/A speed=13.7x    frame= 7474 fps=329 q=-0.0 size=N/A time=00:05:11.72 bitrate=N/A speed=13.7x    frame= 7647 fps=329 q=-0.0 size=N/A time=00:05:18.94 bitrate=N/A speed=13.7x    frame= 7822 fps=330 q=-0.0 size=N/A time=00:05:26.24 bitrate=N/A speed=13.7x    frame= 8010 fps=330 q=-0.0 size=N/A time=00:05:34.08 bitrate=N/A speed=13.8x    frame= 8199 fps=331 q=-0.0 size=N/A time=00:05:41.96 bitrate=N/A speed=13.8x    frame= 8378 fps=331 q=-0.0 size=N/A time=00:05:49.43 bitrate=N/A speed=13.8x    frame= 8559 fps=332 q=-0.0 size=N/A time=00:05:56.98 bitrate=N/A speed=13.8x    frame= 8745 fps=332 q=-0.0 size=N/A time=00:06:04.73 bitrate=N/A speed=13.9x    frame= 8927 fps=333 q=-0.0 size=N/A time=00:06:12.33 bitrate=N/A speed=13.9x    frame= 9111 fps=333 q=-0.0 size=N/A time=00:06:20.00 bitrate=N/A speed=13.9x    frame= 9288 fps=333 q=-0.0 size=N/A time=00:06:27.38 bitrate=N/A speed=13.9x    frame= 9466 fps=334 q=-0.0 size=N/A time=00:06:34.81 bitrate=N/A speed=13.9x    frame= 9659 fps=334 q=-0.0 size=N/A time=00:06:42.86 bitrate=N/A speed=13.9x    frame= 9842 fps=335 q=-0.0 size=N/A time=00:06:50.49 bitrate=N/A speed=  14x    frame=10023 fps=335 q=-0.0 size=N/A time=00:06:58.04 bitrate=N/A speed=  14x    frame=10197 fps=335 q=-0.0 size=N/A time=00:07:05.29 bitrate=N/A speed=  14x    frame=10385 fps=335 q=-0.0 size=N/A time=00:07:13.14 bitrate=N/A speed=  14x    frame=10569 fps=336 q=-0.0 size=N/A time=00:07:20.81 bitrate=N/A speed=  14x    frame=10753 fps=336 q=-0.0 size=N/A time=00:07:28.48 bitrate=N/A speed=  14x    frame=10941 fps=337 q=-0.0 size=N/A time=00:07:36.33 bitrate=N/A speed=  14x    frame=11129 fps=337 q=-0.0 size=N/A time=00:07:44.17 bitrate=N/A speed=14.1x    frame=11319 fps=338 q=-0.0 size=N/A time=00:07:52.09 bitrate=N/A speed=14.1x    frame=11494 fps=338 q=-0.0 size=N/A time=00:07:59.39 bitrate=N/A speed=14.1x    frame=11669 fps=338 q=-0.0 size=N/A time=00:08:06.69 bitrate=N/A speed=14.1x    frame=11843 fps=338 q=-0.0 size=N/A time=00:08:13.95 bitrate=N/A speed=14.1x    frame=12011 fps=337 q=-0.0 size=N/A time=00:08:20.95 bitrate=N/A speed=14.1x    frame=12180 fps=337 q=-0.0 size=N/A time=00:08:28.00 bitrate=N/A speed=14.1x    frame=12358 fps=337 q=-0.0 size=N/A time=00:08:35.43 bitrate=N/A speed=14.1x    frame=12531 fps=337 q=-0.0 size=N/A time=00:08:42.64 bitrate=N/A speed=14.1x    frame=12704 fps=337 q=-0.0 size=N/A time=00:08:49.86 bitrate=N/A speed=14.1x    frame=12881 fps=337 q=-0.0 size=N/A time=00:08:57.24 bitrate=N/A speed=14.1x    frame=13054 fps=337 q=-0.0 size=N/A time=00:09:04.46 bitrate=N/A speed=14.1x    frame=13227 fps=337 q=-0.0 size=N/A time=00:09:11.67 bitrate=N/A speed=14.1x    frame=13392 fps=337 q=-0.0 size=N/A time=00:09:18.55 bitrate=N/A speed=14.1x    frame=13570 fps=337 q=-0.0 size=N/A time=00:09:25.98 bitrate=N/A speed=14.1x    frame=13736 fps=337 q=-0.0 size=N/A time=00:09:32.90 bitrate=N/A speed=14.1x    frame=13921 fps=337 q=-0.0 size=N/A time=00:09:40.62 bitrate=N/A speed=14.1x    frame=14086 fps=337 q=-0.0 size=N/A time=00:09:47.50 bitrate=N/A speed=14.1x    frame=14256 fps=337 q=-0.0 size=N/A time=00:09:54.59 bitrate=N/A speed=14.1x    frame=14421 fps=337 q=-0.0 size=N/A time=00:10:01.47 bitrate=N/A speed=14.1x    frame=14605 fps=337 q=-0.0 size=N/A time=00:10:09.15 bitrate=N/A speed=14.1x    frame=14771 fps=337 q=-0.0 size=N/A time=00:10:16.07 bitrate=N/A speed=14.1x    frame=14948 fps=337 q=-0.0 size=N/A time=00:10:23.45 bitrate=N/A speed=14.1x    frame=15108 fps=337 q=-0.0 size=N/A time=00:10:30.12 bitrate=N/A speed=  14x    frame=15260 fps=336 q=-0.0 size=N/A time=00:10:36.46 bitrate=N/A speed=  14x    frame=15438 fps=336 q=-0.0 size=N/A time=00:10:43.89 bitrate=N/A speed=  14x    frame=15596 fps=336 q=-0.0 size=N/A time=00:10:50.48 bitrate=N/A speed=  14x    frame=15774 fps=336 q=-0.0 size=N/A time=00:10:57.90 bitrate=N/A speed=  14x    frame=15942 fps=336 q=-0.0 size=N/A time=00:11:04.91 bitrate=N/A speed=  14x    frame=16110 fps=336 q=-0.0 size=N/A time=00:11:11.92 bitrate=N/A speed=  14x    frame=16278 fps=336 q=-0.0 size=N/A time=00:11:18.92 bitrate=N/A speed=  14x    frame=16450 fps=336 q=-0.0 size=N/A time=00:11:26.10 bitrate=N/A speed=  14x    frame=16612 fps=336 q=-0.0 size=N/A time=00:11:32.85 bitrate=N/A speed=  14x    frame=16788 fps=336 q=-0.0 size=N/A time=00:11:40.19 bitrate=N/A speed=  14x    frame=16959 fps=336 q=-0.0 size=N/A time=00:11:47.33 bitrate=N/A speed=  14x    frame=17132 fps=336 q=-0.0 size=N/A time=00:11:54.54 bitrate=N/A speed=  14x    frame=17295 fps=335 q=-0.0 size=N/A time=00:12:01.34 bitrate=N/A speed=  14x    frame=17464 fps=335 q=-0.0 size=N/A time=00:12:08.39 bitrate=N/A speed=  14x    frame=17620 fps=335 q=-0.0 size=N/A time=00:12:14.90 bitrate=N/A speed=  14x    frame=17794 fps=335 q=-0.0 size=N/A time=00:12:22.15 bitrate=N/A speed=  14x    frame=17962 fps=335 q=-0.0 size=N/A time=00:12:29.16 bitrate=N/A speed=  14x    frame=18137 fps=335 q=-0.0 size=N/A time=00:12:36.46 bitrate=N/A speed=  14x    frame=18292 fps=335 q=-0.0 size=N/A time=00:12:42.92 bitrate=N/A speed=  14x    frame=18460 fps=334 q=-0.0 size=N/A time=00:12:49.93 bitrate=N/A speed=  14x    frame=18638 fps=335 q=-0.0 size=N/A time=00:12:57.35 bitrate=N/A speed=  14x    frame=18837 fps=335 q=-0.0 size=N/A time=00:13:05.65 bitrate=N/A speed=  14x    frame=19020 fps=335 q=-0.0 size=N/A time=00:13:13.29 bitrate=N/A speed=  14x    frame=19218 fps=336 q=-0.0 size=N/A time=00:13:21.55 bitrate=N/A speed=  14x    frame=19408 fps=336 q=-0.0 size=N/A time=00:13:29.47 bitrate=N/A speed=  14x    frame=19595 fps=336 q=-0.0 size=N/A time=00:13:37.27 bitrate=N/A speed=  14x    frame=19781 fps=336 q=-0.0 size=N/A time=00:13:45.03 bitrate=N/A speed=  14x    frame=19961 fps=336 q=-0.0 size=N/A time=00:13:52.54 bitrate=N/A speed=  14x    frame=20153 fps=337 q=-0.0 size=N/A time=00:14:00.54 bitrate=N/A speed=  14x    frame=20346 fps=337 q=-0.0 size=N/A time=00:14:08.59 bitrate=N/A speed=14.1x    frame=20524 fps=337 q=-0.0 size=N/A time=00:14:16.02 bitrate=N/A speed=14.1x    frame=20699 fps=337 q=-0.0 size=N/A time=00:14:23.32 bitrate=N/A speed=14.1x    frame=20887 fps=337 q=-0.0 size=N/A time=00:14:31.16 bitrate=N/A speed=14.1x    frame=21084 fps=338 q=-0.0 size=N/A time=00:14:39.37 bitrate=N/A speed=14.1x    frame=21271 fps=338 q=-0.0 size=N/A time=00:14:47.17 bitrate=N/A speed=14.1x    frame=21453 fps=338 q=-0.0 size=N/A time=00:14:54.76 bitrate=N/A speed=14.1x    frame=21636 fps=338 q=-0.0 size=N/A time=00:15:02.40 bitrate=N/A speed=14.1x    frame=21829 fps=338 q=-0.0 size=N/A time=00:15:10.45 bitrate=N/A speed=14.1x    frame=22013 fps=339 q=-0.0 size=N/A time=00:15:18.12 bitrate=N/A speed=14.1x    frame=22197 fps=339 q=-0.0 size=N/A time=00:15:25.79 bitrate=N/A speed=14.1x    frame=22384 fps=339 q=-0.0 size=N/A time=00:15:33.59 bitrate=N/A speed=14.1x    frame=22554 fps=339 q=-0.0 size=N/A time=00:15:40.68 bitrate=N/A speed=14.1x    frame=22722 fps=339 q=-0.0 size=N/A time=00:15:47.69 bitrate=N/A speed=14.1x    frame=22892 fps=339 q=-0.0 size=N/A time=00:15:54.78 bitrate=N/A speed=14.1x    frame=23058 fps=339 q=-0.0 size=N/A time=00:16:01.71 bitrate=N/A speed=14.1x    frame=23234 fps=339 q=-0.0 size=N/A time=00:16:09.05 bitrate=N/A speed=14.1x    frame=23400 fps=339 q=-0.0 size=N/A time=00:16:15.97 bitrate=N/A speed=14.1x    frame=23567 fps=338 q=-0.0 size=N/A time=00:16:22.94 bitrate=N/A speed=14.1x    frame=23740 fps=338 q=-0.0 size=N/A time=00:16:30.15 bitrate=N/A speed=14.1x    frame=23915 fps=338 q=-0.0 size=N/A time=00:16:37.45 bitrate=N/A speed=14.1x    frame=24082 fps=338 q=-0.0 size=N/A time=00:16:44.42 bitrate=N/A speed=14.1x    frame=24240 fps=338 q=-0.0 size=N/A time=00:16:51.01 bitrate=N/A speed=14.1x    frame=24406 fps=338 q=-0.0 size=N/A time=00:16:57.93 bitrate=N/A speed=14.1x    frame=24581 fps=338 q=-0.0 size=N/A time=00:17:05.23 bitrate=N/A speed=14.1x    frame=24753 fps=338 q=-0.0 size=N/A time=00:17:12.40 bitrate=N/A speed=14.1x    frame=24928 fps=338 q=-0.0 size=N/A time=00:17:19.70 bitrate=N/A speed=14.1x    frame=25109 fps=338 q=-0.0 size=N/A time=00:17:27.25 bitrate=N/A speed=14.1x    frame=25287 fps=338 q=-0.0 size=N/A time=00:17:34.67 bitrate=N/A speed=14.1x    frame=25463 fps=338 q=-0.0 size=N/A time=00:17:42.01 bitrate=N/A speed=14.1x    frame=25635 fps=338 q=-0.0 size=N/A time=00:17:49.19 bitrate=N/A speed=14.1x    frame=25830 fps=338 q=-0.0 size=N/A time=00:17:57.32 bitrate=N/A speed=14.1x    frame=26029 fps=339 q=-0.0 size=N/A time=00:18:05.62 bitrate=N/A speed=14.1x    frame=26217 fps=339 q=-0.0 size=N/A time=00:18:13.46 bitrate=N/A speed=14.1x    frame=26420 fps=339 q=-0.0 size=N/A time=00:18:21.93 bitrate=N/A speed=14.1x    frame=26619 fps=339 q=-0.0 size=N/A time=00:18:30.23 bitrate=N/A speed=14.2x    frame=26816 fps=340 q=-0.0 size=N/A time=00:18:38.45 bitrate=N/A speed=14.2x    frame=26996 fps=340 q=-0.0 size=N/A time=00:18:45.95 bitrate=N/A speed=14.2x    frame=27183 fps=340 q=-0.0 size=N/A time=00:18:53.75 bitrate=N/A speed=14.2x    frame=27373 fps=340 q=-0.0 size=N/A time=00:19:01.68 bitrate=N/A speed=14.2x    frame=27561 fps=340 q=-0.0 size=N/A time=00:19:09.52 bitrate=N/A speed=14.2x    frame=27748 fps=340 q=-0.0 size=N/A time=00:19:17.32 bitrate=N/A speed=14.2x    frame=27934 fps=341 q=-0.0 size=N/A time=00:19:25.08 bitrate=N/A speed=14.2x    frame=28127 fps=341 q=-0.0 size=N/A time=00:19:33.13 bitrate=N/A speed=14.2x    frame=28311 fps=341 q=-0.0 size=N/A time=00:19:40.80 bitrate=N/A speed=14.2x    frame=28499 fps=341 q=-0.0 size=N/A time=00:19:48.64 bitrate=N/A speed=14.2x    frame=28680 fps=341 q=-0.0 size=N/A time=00:19:56.19 bitrate=N/A speed=14.2x    frame=28844 fps=341 q=-0.0 size=N/A time=00:20:03.03 bitrate=N/A speed=14.2x    frame=28996 fps=341 q=-0.0 size=N/A time=00:20:09.37 bitrate=N/A speed=14.2x    frame=29161 fps=341 q=-0.0 size=N/A time=00:20:16.25 bitrate=N/A speed=14.2x    frame=29332 fps=341 q=-0.0 size=N/A time=00:20:23.38 bitrate=N/A speed=14.2x    frame=29494 fps=340 q=-0.0 size=N/A time=00:20:30.14 bitrate=N/A speed=14.2x    frame=29672 fps=340 q=-0.0 size=N/A time=00:20:37.56 bitrate=N/A speed=14.2x    frame=29837 fps=340 q=-0.0 size=N/A time=00:20:44.45 bitrate=N/A speed=14.2x    frame=29996 fps=340 q=-0.0 size=N/A time=00:20:51.08 bitrate=N/A speed=14.2x    frame=30166 fps=340 q=-0.0 size=N/A time=00:20:58.17 bitrate=N/A speed=14.2x    frame=30344 fps=340 q=-0.0 size=N/A time=00:21:05.59 bitrate=N/A speed=14.2x    frame=30532 fps=340 q=-0.0 size=N/A time=00:21:13.43 bitrate=N/A speed=14.2x    frame=30719 fps=340 q=-0.0 size=N/A time=00:21:21.23 bitrate=N/A speed=14.2x    frame=30901 fps=340 q=-0.0 size=N/A time=00:21:28.82 bitrate=N/A speed=14.2x    frame=31091 fps=341 q=-0.0 size=N/A time=00:21:36.75 bitrate=N/A speed=14.2x    frame=31280 fps=341 q=-0.0 size=N/A time=00:21:44.63 bitrate=N/A speed=14.2x    frame=31460 fps=341 q=-0.0 size=N/A time=00:21:52.14 bitrate=N/A speed=14.2x    frame=31643 fps=341 q=-0.0 size=N/A time=00:21:59.77 bitrate=N/A speed=14.2x    frame=31822 fps=341 q=-0.0 size=N/A time=00:22:07.24 bitrate=N/A speed=14.2x    frame=32001 fps=341 q=-0.0 size=N/A time=00:22:14.70 bitrate=N/A speed=14.2x    frame=32168 fps=341 q=-0.0 size=N/A time=00:22:21.67 bitrate=N/A speed=14.2x    frame=32352 fps=341 q=-0.0 size=N/A time=00:22:29.34 bitrate=N/A speed=14.2x    frame=32539 fps=341 q=-0.0 size=N/A time=00:22:37.14 bitrate=N/A speed=14.2x    frame=32692 fps=341 q=-0.0 size=N/A time=00:22:43.52 bitrate=N/A speed=14.2x    frame=32843 fps=341 q=-0.0 size=N/A time=00:22:49.82 bitrate=N/A speed=14.2x    frame=33002 fps=340 q=-0.0 size=N/A time=00:22:56.45 bitrate=N/A speed=14.2x    frame=33165 fps=340 q=-0.0 size=N/A time=00:23:03.25 bitrate=N/A speed=14.2x    frame=33327 fps=340 q=-0.0 size=N/A time=00:23:10.01 bitrate=N/A speed=14.2x    frame=33474 fps=340 q=-0.0 size=N/A time=00:23:16.14 bitrate=N/A speed=14.2x    frame=33607 fps=339 q=-0.0 size=N/A time=00:23:21.69 bitrate=N/A speed=14.2x    frame=33743 fps=339 q=-0.0 size=N/A time=00:23:27.36 bitrate=N/A speed=14.1x    frame=33860 fps=338 q=-0.0 size=N/A time=00:23:32.24 bitrate=N/A speed=14.1x    frame=33994 fps=338 q=-0.0 size=N/A time=00:23:37.83 bitrate=N/A speed=14.1x    frame=34143 fps=338 q=-0.0 size=N/A time=00:23:44.04 bitrate=N/A speed=14.1x    frame=34285 fps=337 q=-0.0 size=N/A time=00:23:49.97 bitrate=N/A speed=14.1x    frame=34397 fps=337 q=-0.0 size=N/A time=00:23:54.64 bitrate=N/A speed=  14x    frame=34560 fps=337 q=-0.0 size=N/A time=00:24:01.44 bitrate=N/A speed=  14x    [Parsed_psnr_16 @ 00000220efcd0ec0] PSNR y:48.961295 u:50.349022 v:50.399764 average:49.383201 min:37.924514 max:inf
[out#0/null @ 00000220e2808a00] video:14903KiB audio:271276KiB subtitle:0KiB other streams:0KiB global headers:0KiB muxing overhead: unknown
frame=34683 fps=337 q=-0.0 Lsize=N/A time=00:24:06.57 bitrate=N/A speed=  14x    
